<svg width="50" height="56" viewBox="0 0 50 56" fill="none" xmlns="http://www.w3.org/2000/svg">
<path d="M25 15.35C26.5155 15.35 27.969 15.9558 29.0406 17.0341C30.1122 18.1125 30.7143 19.575 30.7143 21.1C30.7143 21.8551 30.5665 22.6028 30.2793 23.3004C29.9921 23.9981 29.5712 24.6319 29.0406 25.1659C28.51 25.6998 27.8801 26.1233 27.1868 26.4123C26.4935 26.7013 25.7504 26.85 25 26.85C23.4845 26.85 22.031 26.2442 20.9594 25.1659C19.8878 24.0875 19.2857 22.625 19.2857 21.1C19.2857 19.575 19.8878 18.1125 20.9594 17.0341C22.031 15.9558 23.4845 15.35 25 15.35ZM25 5C29.2435 5 33.3131 6.69624 36.3137 9.71558C39.3143 12.7349 41 16.83 41 21.1C41 33.175 25 51 25 51C25 51 9 33.175 9 21.1C9 16.83 10.6857 12.7349 13.6863 9.71558C16.6869 6.69624 20.7565 5 25 5ZM25 9.6C21.969 9.6 19.0621 10.8116 16.9188 12.9683C14.7755 15.1249 13.5714 18.05 13.5714 21.1C13.5714 23.4 13.5714 28 25 43.433C36.4286 28 36.4286 23.4 36.4286 21.1C36.4286 18.05 35.2245 15.1249 33.0812 12.9683C30.9379 10.8116 28.031 9.6 25 9.6Z" fill="#FEAC3B"/>
</svg>
