<svg width="42" height="42" viewBox="0 0 42 42" fill="none" xmlns="http://www.w3.org/2000/svg">
<path d="M21 15.75C21 14 22.2495 12.25 24.7502 12.25C26.0763 12.25 27.348 11.7232 28.2856 10.7856C29.2232 9.84797 29.75 8.57627 29.75 7.25025V6.125M14 15.75V14.875C14 13.4826 14.5531 12.1473 15.5377 11.1627C16.5223 10.1781 17.8576 9.625 19.25 9.625C20.1783 9.625 21.0685 9.25625 21.7249 8.59987C22.3813 7.9435 22.75 7.05326 22.75 6.125V5.25M29.75 20.3V26.25C29.75 29.0348 28.6438 31.7055 26.6746 33.6746C24.7055 35.6438 22.0348 36.75 19.25 36.75H15.75C12.9652 36.75 10.2945 35.6438 8.32538 33.6746C6.35625 31.7055 5.25 29.0348 5.25 26.25V20.3C5.25 20.0215 5.36062 19.7545 5.55754 19.5575C5.75445 19.3606 6.02152 19.25 6.3 19.25H28.7C28.9785 19.25 29.2455 19.3606 29.4425 19.5575C29.6394 19.7545 29.75 20.0215 29.75 20.3Z" stroke="#FEAC3B" stroke-width="3" stroke-linecap="round" stroke-linejoin="round"/>
<path d="M28 19.25H32.375C33.5353 19.25 34.6481 19.7109 35.4686 20.5314C36.2891 21.3519 36.75 22.4647 36.75 23.625C36.75 24.7853 36.2891 25.8981 35.4686 26.7186C34.6481 27.5391 33.5353 28 32.375 28H29.75" stroke="#FEAC3B" stroke-width="3" stroke-linecap="round" stroke-linejoin="round"/>
</svg>
