<svg width="42" height="42" viewBox="0 0 42 42" fill="none" xmlns="http://www.w3.org/2000/svg">
<path d="M35.5278 1.75H5.97222C3.64035 1.75 1.75 3.64035 1.75 5.97222V35.5278C1.75 37.8596 3.64035 39.75 5.97222 39.75H35.5278C37.8596 39.75 39.75 37.8596 39.75 35.5278V5.97222C39.75 3.64035 37.8596 1.75 35.5278 1.75Z" stroke="#FEAC3B" stroke-width="3.5" stroke-linecap="round" stroke-linejoin="round"/>
<path d="M14.4166 31.3056V10.1945H22.8611C24.5408 10.1945 26.1517 10.8617 27.3394 12.0494C28.5271 13.2372 29.1944 14.8481 29.1944 16.5278C29.1944 18.2075 28.5271 19.8184 27.3394 21.0061C26.1517 22.1939 24.5408 22.8611 22.8611 22.8611H14.4166" stroke="#FEAC3B" stroke-width="3.5" stroke-linecap="round" stroke-linejoin="round"/>
</svg>
