<svg width="42" height="42" viewBox="0 0 42 42" fill="none" xmlns="http://www.w3.org/2000/svg">
<path d="M33.8623 15.211C33.9427 11.7159 32.6338 8.33146 30.2226 5.79988C27.8114 3.26831 24.4947 1.79618 20.9998 1.7063C17.5048 1.79618 14.1882 3.26831 11.777 5.79988C9.3658 8.33146 8.0569 11.7159 8.13728 15.211C8.09261 18.1779 9.03664 21.0752 10.8205 23.4462C12.6044 25.8173 15.1267 27.5271 17.9898 28.3063L16.7893 30.7073C16.6915 30.9034 16.6454 31.1213 16.6555 31.3402C16.6655 31.5592 16.7313 31.7719 16.8467 31.9583C16.962 32.1446 17.1231 32.2984 17.3146 32.4051C17.5061 32.5117 17.7216 32.5676 17.9408 32.5675H24.0658C24.285 32.5676 24.5005 32.5117 24.692 32.4051C24.8835 32.2984 25.0445 32.1446 25.1599 31.9583C25.2752 31.7719 25.3411 31.5592 25.3511 31.3402C25.3612 31.1213 25.3151 30.9034 25.2173 30.7073L24.0168 28.3063C26.8785 27.5258 29.3993 25.8154 31.1818 23.4445C32.9643 21.0736 33.9074 18.177 33.8623 15.211Z" stroke="#FEAC3B" stroke-width="3" stroke-linecap="round" stroke-linejoin="round"/>
<path d="M21 32.5764V35.1489C21 36.5699 22.1515 37.7214 23.5725 37.7214H26.145C26.8273 37.7214 27.4816 37.4504 27.964 36.9679C28.4465 36.4855 28.7175 35.8312 28.7175 35.1489C28.7175 34.4666 28.9885 33.8123 29.471 33.3299C29.9534 32.8474 30.6077 32.5764 31.29 32.5764C31.9723 32.5764 32.6266 32.8474 33.109 33.3299C33.5915 33.8123 33.8625 34.4666 33.8625 35.1489V40.2939" stroke="#FEAC3B" stroke-width="3" stroke-linecap="round" stroke-linejoin="round"/>
</svg>
