<svg width="42" height="42" viewBox="0 0 42 42" fill="none" xmlns="http://www.w3.org/2000/svg">
<path d="M33.25 29.75H36.75C37.8 29.75 38.5 29.05 38.5 28V22.75C38.5 21.175 37.275 19.775 35.875 19.425C32.725 18.55 28 17.5 28 17.5C28 17.5 25.725 15.05 24.15 13.475C23.275 12.775 22.225 12.25 21 12.25H8.75C7.7 12.25 6.825 12.95 6.3 13.825L3.85 18.9C3.61826 19.5759 3.5 20.2855 3.5 21V28C3.5 29.05 4.2 29.75 5.25 29.75H8.75" stroke="#FEAC3B" stroke-width="3" stroke-linecap="round" stroke-linejoin="round"/>
<path d="M12.25 33.25C14.183 33.25 15.75 31.683 15.75 29.75C15.75 27.817 14.183 26.25 12.25 26.25C10.317 26.25 8.75 27.817 8.75 29.75C8.75 31.683 10.317 33.25 12.25 33.25Z" stroke="#FEAC3B" stroke-width="3" stroke-linecap="round" stroke-linejoin="round"/>
<path d="M15.75 29.75H26.25" stroke="#FEAC3B" stroke-width="3" stroke-linecap="round" stroke-linejoin="round"/>
<path d="M29.75 33.25C31.683 33.25 33.25 31.683 33.25 29.75C33.25 27.817 31.683 26.25 29.75 26.25C27.817 26.25 26.25 27.817 26.25 29.75C26.25 31.683 27.817 33.25 29.75 33.25Z" stroke="#FEAC3B" stroke-width="3" stroke-linecap="round" stroke-linejoin="round"/>
</svg>
