<svg width="50" height="50" viewBox="0 0 50 50" fill="none" xmlns="http://www.w3.org/2000/svg">
<path d="M11.675 5.00004C10.115 5.00004 8.7375 6.09504 8.45 7.67004C8.08 9.71504 7.5 13.355 7.5 16.25C7.5 19.3275 9.09 22.0325 11.4875 23.59C12.165 24.0325 12.5 24.6025 12.5 25.09V26.115C12.5 26.16 12.4975 26.205 12.4925 26.25C12.425 26.9 12.115 29.8225 11.8225 32.8275C11.535 35.79 11.25 38.9525 11.25 40C11.25 41.3261 11.7768 42.5979 12.7145 43.5356C13.6521 44.4733 14.9239 45 16.25 45C17.5761 45 18.8479 44.4733 19.7855 43.5356C20.7232 42.5979 21.25 41.3261 21.25 40C21.25 38.95 20.965 35.79 20.6775 32.8275C20.4638 30.6349 20.2404 28.4432 20.0075 26.2525L20 26.115V25.09C20 24.6 20.335 24.03 21.0125 23.59C22.2364 22.796 23.2423 21.7085 23.9387 20.4266C24.6351 19.1447 24.9999 17.7089 25 16.25C25 13.355 24.42 9.71504 24.05 7.67004C23.911 6.9174 23.5118 6.23757 22.9223 5.74948C22.3327 5.2614 21.5904 4.99611 20.825 5.00004C19.975 5.00004 19.2 5.31754 18.615 5.84004C17.9465 5.29672 17.1114 5.0001 16.25 5.00004C15.3525 5.00004 14.53 5.31504 13.885 5.84004C13.278 5.29728 12.4893 4.99811 11.675 5.00004ZM15 8.75004C15 8.41852 15.1317 8.10058 15.3661 7.86616C15.6005 7.63174 15.9185 7.50004 16.25 7.50004C16.5815 7.50004 16.8995 7.63174 17.1339 7.86616C17.3683 8.10058 17.5 8.41852 17.5 8.75004V16.25C17.5 16.5816 17.6317 16.8995 17.8661 17.1339C18.1005 17.3683 18.4185 17.5 18.75 17.5C19.0815 17.5 19.3995 17.3683 19.6339 17.1339C19.8683 16.8995 20 16.5816 20 16.25V8.32504C20 8.2167 20.0213 8.10942 20.0628 8.00933C20.1043 7.90924 20.165 7.81829 20.2416 7.74168C20.3182 7.66507 20.4092 7.6043 20.5093 7.56284C20.6094 7.52138 20.7167 7.50004 20.825 7.50004C21.2175 7.50004 21.525 7.77004 21.59 8.11754C21.9575 10.15 22.5 13.5975 22.5 16.25C22.5001 17.2926 22.2394 18.3187 21.7416 19.2348C21.2439 20.1509 20.5248 20.9279 19.65 21.495C18.5525 22.2075 17.5 23.46 17.5 25.09V26.115C17.5 26.2484 17.5067 26.3817 17.52 26.515C17.59 27.16 17.8975 30.075 18.19 33.07C18.485 36.1075 18.75 39.1075 18.75 40C18.75 40.6631 18.4866 41.299 18.0178 41.7678C17.5489 42.2367 16.913 42.5 16.25 42.5C15.587 42.5 14.9511 42.2367 14.4822 41.7678C14.0134 41.299 13.75 40.6631 13.75 40C13.75 39.1075 14.015 36.1075 14.31 33.07C14.6025 30.075 14.91 27.16 14.98 26.515C14.9933 26.3817 15 26.2484 15 26.115V25.09C15 23.46 13.9475 22.2075 12.85 21.495C11.9752 20.9279 11.2561 20.1509 10.7584 19.2348C10.2606 18.3187 9.99988 17.2926 10 16.25C10 13.6 10.5425 10.15 10.91 8.11754C10.9442 7.94047 11.0401 7.78127 11.1807 7.66822C11.3212 7.55517 11.4972 7.49558 11.6775 7.50004C11.8959 7.50071 12.1051 7.58792 12.2592 7.74256C12.4134 7.89721 12.5 8.10667 12.5 8.32504V16.25C12.5 16.5816 12.6317 16.8995 12.8661 17.1339C13.1005 17.3683 13.4185 17.5 13.75 17.5C14.0815 17.5 14.3995 17.3683 14.6339 17.1339C14.8683 16.8995 15 16.5816 15 16.25V8.75004ZM27.5 16.25C27.5 13.2664 28.6853 10.4049 30.795 8.29509C32.9048 6.18531 35.7663 5.00004 38.75 5.00004C39.0815 5.00004 39.3995 5.13174 39.6339 5.36616C39.8683 5.60058 40 5.91852 40 6.25004V23.695L40.05 24.255C40.2449 26.5013 40.4349 28.748 40.62 30.995C40.93 34.7625 41.25 38.8975 41.25 40C41.25 41.3261 40.7232 42.5979 39.7855 43.5356C38.8479 44.4733 37.5761 45 36.25 45C34.9239 45 33.6521 44.4733 32.7145 43.5356C31.7768 42.5979 31.25 41.3261 31.25 40C31.25 38.9 31.57 34.7625 31.88 30.995C32.035 29.0925 32.1925 27.2525 32.31 25.89L32.385 25H31.25C30.2554 25 29.3016 24.605 28.5983 23.9017C27.8951 23.1984 27.5 22.2446 27.5 21.25V16.25ZM34.995 23.86L34.9425 24.4725L34.8 26.105C34.6825 27.465 34.525 29.3 34.37 31.2C34.055 35.0425 33.75 39.03 33.75 40C33.75 40.6631 34.0134 41.299 34.4822 41.7678C34.9511 42.2367 35.587 42.5 36.25 42.5C36.913 42.5 37.5489 42.2367 38.0178 41.7678C38.4866 41.299 38.75 40.6631 38.75 40C38.75 39.03 38.445 35.0425 38.13 31.2C37.9445 28.9571 37.7537 26.7146 37.5575 24.4725L37.505 23.8625V23.86L37.5 23.75V7.58754C35.4171 7.88818 33.5124 8.92943 32.1349 10.5204C30.7574 12.1114 29.9995 14.1456 30 16.25V21.25C30 21.5816 30.1317 21.8995 30.3661 22.1339C30.6005 22.3683 30.9185 22.5 31.25 22.5H33.75C33.9234 22.5001 34.0949 22.5362 34.2536 22.6061C34.4123 22.6759 34.5548 22.7781 34.6719 22.906C34.7889 23.0339 34.8781 23.1848 34.9338 23.349C34.9894 23.5133 35.0103 23.6873 34.995 23.86Z" fill="#FEAC3B"/>
</svg>
