<svg width="42" height="42" viewBox="0 0 42 42" fill="none" xmlns="http://www.w3.org/2000/svg">
<path d="M41.7212 17.704L37.5343 9.32692C37.3801 9.01859 37.1666 8.74367 36.9061 8.51784C36.6456 8.29202 36.3432 8.11973 36.0161 8.0108C35.689 7.90187 35.3437 7.85844 34.9998 7.88299C34.6559 7.90754 34.3202 7.99958 34.0119 8.15387L29.9317 10.1932L21.3364 7.91927C21.1159 7.86187 20.8843 7.86187 20.6638 7.91927L12.0685 10.1932L7.98831 8.15387C7.68001 7.99958 7.34433 7.90754 7.00045 7.88299C6.65657 7.85844 6.31122 7.90187 5.98413 8.0108C5.65703 8.11973 5.3546 8.29202 5.0941 8.51784C4.8336 8.74367 4.62013 9.01859 4.46589 9.32692L0.279018 17.7023C0.124727 18.0106 0.0326782 18.3463 0.00812868 18.6902C-0.0164208 19.0341 0.0270095 19.3794 0.135939 19.7065C0.244869 20.0336 0.417165 20.336 0.642988 20.5965C0.86881 20.857 1.14374 21.0705 1.45206 21.2247L5.88175 23.4412L14.9856 29.943C15.1198 30.0383 15.2706 30.1079 15.4302 30.1481L25.9302 32.7731C26.1501 32.8282 26.3805 32.8255 26.599 32.7651C26.8175 32.7047 27.0167 32.5888 27.1771 32.4286L36.212 23.392L40.5465 21.2247C41.1688 20.9132 41.6419 20.3674 41.8619 19.7072C42.0818 19.047 42.0306 18.3264 41.7196 17.704H41.7212ZM32.7158 23.1787L27.0704 18.6572C26.8175 18.4546 26.4986 18.3528 26.1751 18.3713C25.8517 18.3897 25.5464 18.5272 25.3182 18.7572C22.3963 21.7005 19.1396 21.3281 17.0626 20.0156L24.1567 13.125H29.3755L33.8396 22.0516L32.7158 23.1787ZM6.81363 10.5L10.172 12.1767L5.97691 20.5521L2.62511 18.877L6.81363 10.5ZM25.8449 30.0447L16.3112 27.6625L8.23933 21.8974L12.8331 12.7099L21.0001 10.5459L22.6079 10.9708L15.2251 18.1371L15.212 18.1518C14.9341 18.4298 14.7221 18.7665 14.5917 19.1373C14.4614 19.5081 14.4159 19.9034 14.4588 20.2941C14.5016 20.6848 14.6316 21.0608 14.8392 21.3946C15.0468 21.7283 15.3267 22.0111 15.6582 22.2222C19.0314 24.3764 23.1018 24.0269 26.3075 21.4019L30.8439 25.0457L25.8449 30.0447ZM36.0168 20.5504L31.8299 12.1832L35.1866 10.5L39.3751 18.877L36.0168 20.5504ZM21.6203 35.7541C21.5494 36.0378 21.3858 36.2897 21.1554 36.4698C20.9251 36.6499 20.6412 36.7479 20.3488 36.7483C20.2409 36.7484 20.1335 36.7352 20.0289 36.709L13.1924 34.9994C13.0325 34.9599 12.8816 34.8903 12.7478 34.7943L8.42472 31.7067C8.15891 31.498 7.98385 31.1948 7.93599 30.8602C7.88812 30.5257 7.97115 30.1856 8.16779 29.9107C8.36442 29.6359 8.6595 29.4474 8.99157 29.3847C9.32365 29.3219 9.66714 29.3897 9.9505 29.5739L14.0701 32.5172L20.672 34.1643C21.0096 34.2488 21.2999 34.4639 21.4789 34.7623C21.658 35.0608 21.7112 35.4181 21.6268 35.7558L21.6203 35.7541Z" fill="#FEAC3B"/>
</svg>
