<svg width="37" height="37" viewBox="0 0 37 37" fill="none" xmlns="http://www.w3.org/2000/svg">
<g clip-path="url(#clip0_314_477)">
<path d="M36.7541 15.5962L33.0656 8.21647C32.9298 7.94485 32.7417 7.70266 32.5122 7.50372C32.2827 7.30478 32.0163 7.15299 31.7281 7.05703C31.44 6.96107 31.1358 6.92281 30.8328 6.94444C30.5299 6.96606 30.2342 7.04715 29.9626 7.18308L26.3681 8.9796L18.7961 6.9764C18.6018 6.92584 18.3978 6.92584 18.2035 6.9764L10.6315 8.9796L7.03701 7.18308C6.76541 7.04715 6.46969 6.96606 6.16675 6.94444C5.86381 6.92281 5.55957 6.96107 5.27142 7.05703C4.98326 7.15299 4.71684 7.30478 4.48735 7.50372C4.25786 7.70266 4.0698 7.94485 3.93392 8.21647L0.245487 15.5948C0.109564 15.8664 0.028474 16.1621 0.00684709 16.4651C-0.0147799 16.768 0.0234802 17.0722 0.119442 17.3604C0.215404 17.6485 0.367189 17.915 0.566128 18.1445C0.765067 18.3739 1.00726 18.562 1.27889 18.6979L5.18123 20.6505L13.2013 26.3783C13.3195 26.4622 13.4523 26.5235 13.5929 26.5589L22.8429 28.8714C23.0367 28.92 23.2397 28.9176 23.4322 28.8644C23.6247 28.8112 23.8001 28.7091 23.9414 28.5679L31.9007 20.6071L35.7192 18.6979C36.2674 18.4235 36.6842 17.9426 36.878 17.361C37.0718 16.7794 37.0267 16.1446 36.7526 15.5962H36.7541ZM28.8208 20.4192L23.8474 16.436C23.6246 16.2575 23.3437 16.1678 23.0587 16.1841C22.7738 16.2004 22.5049 16.3215 22.3038 16.5241C19.7297 19.117 16.8608 18.7889 15.031 17.6327L21.2806 11.5624H25.8781L29.8108 19.4263L28.8208 20.4192ZM6.00217 9.24987L8.96072 10.727L5.26506 18.1053L2.31228 16.6296L6.00217 9.24987ZM22.7678 26.4679L14.3691 24.3693L7.25814 19.2905L11.305 11.1967L18.4998 9.29034L19.9162 9.66468L13.4123 15.9778L13.4007 15.9908C13.1559 16.2356 12.9692 16.5323 12.8543 16.859C12.7395 17.1856 12.6994 17.5338 12.7372 17.878C12.7749 18.2222 12.8894 18.5535 13.0723 18.8475C13.2552 19.1415 13.5018 19.3907 13.7938 19.5766C16.7654 21.4743 20.3512 21.1665 23.1754 18.854L27.1717 22.064L22.7678 26.4679ZM31.7287 18.1039L28.0403 10.7328L30.9974 9.24987L34.6873 16.6296L31.7287 18.1039ZM19.0461 31.4976C18.9836 31.7475 18.8395 31.9694 18.6366 32.128C18.4337 32.2867 18.1836 32.3731 17.926 32.3734C17.831 32.3735 17.7363 32.3618 17.6442 32.3387L11.6215 30.8327C11.4807 30.7979 11.3478 30.7366 11.2299 30.6521L7.42146 27.932C7.1873 27.7481 7.03307 27.481 6.99091 27.1863C6.94875 26.8916 7.02189 26.592 7.19512 26.3498C7.36834 26.1077 7.62829 25.9417 7.92084 25.8864C8.21338 25.8311 8.51597 25.8908 8.7656 26.0531L12.3948 28.646L18.2107 30.0971C18.5082 30.1715 18.7639 30.361 18.9216 30.6239C19.0793 30.8868 19.1262 31.2016 19.0519 31.499L19.0461 31.4976Z" fill="#FEAC3B"/>
</g>
<defs>
<clipPath id="clip0_314_477">
<rect width="37" height="37" fill="white"/>
</clipPath>
</defs>
</svg>
