<svg width="46" height="46" viewBox="0 0 46 46" fill="none" xmlns="http://www.w3.org/2000/svg">
<path d="M23.0001 33.8293C23.2557 33.8293 23.4876 33.7897 23.6959 33.7104C23.9042 33.6312 24.1035 33.5111 24.2939 33.3501C25.3161 32.4237 26.2904 31.5133 27.2168 30.6189C28.1432 29.7244 28.9501 28.8459 29.6376 27.9834C30.325 27.1209 30.8757 26.2827 31.2897 25.4688C31.7037 24.6548 31.9114 23.8639 31.9126 23.0959C31.9126 21.6904 31.4335 20.5244 30.4751 19.598C29.5168 18.6716 28.3668 18.2084 27.0251 18.2084C26.1946 18.2084 25.4362 18.3765 24.7501 18.7125C24.0639 19.0486 23.4806 19.4875 23.0001 20.0293C22.521 19.4862 21.9223 19.0473 21.2042 18.7125C20.4861 18.3777 19.7431 18.2097 18.9751 18.2084C17.6335 18.2084 16.4835 18.6716 15.5251 19.598C14.5668 20.5244 14.0876 21.6904 14.0876 23.0959C14.0876 23.8626 14.2953 24.6535 14.7106 25.4688C15.1258 26.284 15.6772 27.1222 16.3646 27.9834C17.0521 28.8447 17.8584 29.7231 18.7835 30.6189C19.7086 31.5146 20.6829 32.425 21.7064 33.3501C21.8981 33.5098 22.098 33.6299 22.3063 33.7104C22.5146 33.7909 22.7459 33.8305 23.0001 33.8293ZM11.5001 40.2501C10.446 40.2501 9.54386 39.8751 8.7938 39.125C8.04375 38.375 7.66808 37.4722 7.6668 36.4168V22.2813L5.75014 23.7668C5.30291 24.0862 4.82375 24.214 4.31264 24.1501C3.80153 24.0862 3.38625 23.8307 3.0668 23.3834C2.74736 22.9362 2.62789 22.457 2.70839 21.9459C2.78889 21.4348 3.03614 21.0195 3.45014 20.7001L20.6522 7.52301C21.0036 7.26746 21.3793 7.07579 21.7792 6.94801C22.1792 6.82024 22.5861 6.75635 23.0001 6.75635C23.4141 6.75635 23.8217 6.82024 24.223 6.94801C24.6242 7.07579 24.9992 7.26746 25.3481 7.52301L42.5981 20.7001C43.0133 21.0195 43.2529 21.4348 43.3168 21.9459C43.3807 22.457 43.2529 22.9362 42.9335 23.3834C42.614 23.7987 42.1987 24.0383 41.6876 24.1022C41.1765 24.1661 40.7133 24.0383 40.2981 23.7188L38.3335 22.2813V36.4168C38.3335 37.4709 37.9584 38.3737 37.2084 39.125C36.4583 39.8764 35.5556 40.2514 34.5001 40.2501H11.5001ZM11.5001 36.4168H34.5001V19.3584L23.0001 10.5897L11.5001 19.3584V36.4168Z" fill="#FEAC3B"/>
</svg>
