<svg width="42" height="42" viewBox="0 0 42 42" fill="none" xmlns="http://www.w3.org/2000/svg">
<path d="M15.75 8.75C15.75 9.67826 16.1187 10.5685 16.7751 11.2249C17.4315 11.8813 18.3217 12.25 19.25 12.25C20.1783 12.25 21.0685 11.8813 21.7249 11.2249C22.3813 10.5685 22.75 9.67826 22.75 8.75C22.75 7.82174 22.3813 6.9315 21.7249 6.27513C21.0685 5.61875 20.1783 5.25 19.25 5.25C18.3217 5.25 17.4315 5.61875 16.7751 6.27513C16.1187 6.9315 15.75 7.82174 15.75 8.75Z" stroke="#FEAC3B" stroke-width="3" stroke-linecap="round" stroke-linejoin="round"/>
<path d="M19.2498 12.25V26.25H26.2498L33.2498 35M19.2498 19.25H27.9998M12.2498 20.125C10.9959 20.6443 9.87998 21.4481 8.99026 22.4729C8.10055 23.4977 7.46142 24.7155 7.1234 26.0299C6.78538 27.3443 6.75774 28.7193 7.04266 30.0462C7.32758 31.3731 7.91725 32.6155 8.76505 33.6753C9.61286 34.735 10.6956 35.5831 11.9276 36.1523C13.1596 36.7215 14.5071 36.9964 15.8636 36.9551C17.2201 36.9139 18.5485 36.5577 19.7436 35.9146C20.9388 35.2716 21.9679 34.3593 22.7498 33.25" stroke="#FEAC3B" stroke-width="3" stroke-linecap="round" stroke-linejoin="round"/>
</svg>
