<svg width="37" height="37" viewBox="0 0 37 37" fill="none" xmlns="http://www.w3.org/2000/svg">
<g clip-path="url(#clip0_314_511)">
<path d="M33.7623 3.93114C33.2628 4.59946 32.2592 5.87364 29.7733 6.87727C27.2457 7.89477 23.104 8.66714 16.2822 8.09827L15.4265 8.04508C11.2108 7.90633 8.21847 9.42796 6.27829 11.6965C4.25485 14.0645 3.4686 17.1355 3.4686 19.6561C3.4686 20.9974 3.5426 22.6277 3.99816 24.2742C3.69291 24.6565 3.39845 25.0728 3.11478 25.523C1.36654 28.298 0.362911 31.4499 -0.00246429 34.6943C-0.00189209 35.2674 0.211449 35.8199 0.596199 36.2446C0.980949 36.6693 1.5097 36.936 2.07993 36.9931C2.65017 37.0501 3.22126 36.8933 3.6825 36.5532C4.14373 36.2131 4.46225 35.7138 4.57629 35.1522C4.87691 32.9091 5.49435 30.7284 6.58354 28.7466C8.84978 30.955 12.5683 32.3749 18.4998 32.3749C22.7872 32.3749 26.1773 31.1169 28.7905 29.0565C31.392 27.0053 33.1611 24.2118 34.3197 21.2333C36.6298 15.3086 36.6298 8.43127 35.8228 4.39827L35.3117 1.86377L33.7623 3.93114ZM33.878 7.14552C34.2156 10.8663 33.8965 15.9538 32.1667 20.3915C31.1099 23.0971 29.5536 25.5091 27.359 27.2388C25.1807 28.9593 22.3062 30.0601 18.5022 30.0624C12.5174 30.0624 9.46029 28.5361 7.84385 26.7208C11.9809 21.0321 17.3737 23.9158 22.5097 20.5233C24.221 19.3948 26.5219 17.4639 26.774 15.1861C26.8272 14.6912 26.2259 14.5525 25.8952 14.9271C22.6577 18.6271 17.6327 18.9901 12.9683 19.6561C10.1309 20.1533 7.85772 20.8725 5.95453 22.334C5.82041 21.4321 5.7811 20.5256 5.7811 19.6561C5.7811 17.5518 6.4471 15.0589 8.03579 13.1996C9.48341 11.5069 11.7867 10.2373 15.3595 10.3576L16.0902 10.4038C23.1433 10.9889 27.6758 10.2188 30.6382 9.02096C31.8069 8.56519 32.9011 7.93267 33.878 7.14552Z" fill="#FEAC3B"/>
</g>
<defs>
<clipPath id="clip0_314_511">
<rect width="37" height="37" fill="white" transform="matrix(-1 0 0 1 37 0)"/>
</clipPath>
</defs>
</svg>
