<svg width="42" height="42" viewBox="0 0 42 42" fill="none" xmlns="http://www.w3.org/2000/svg">
<path d="M21 34.825C23.8292 33.95 26.1917 32.2221 28.0875 29.6415C29.9833 27.0608 31.0917 24.1803 31.4125 21H21V7.2187L10.5 11.1562V20.2125C10.5 20.4166 10.5292 20.6791 10.5875 21H21V34.825ZM21 38.325C20.7958 38.325 20.6063 38.3104 20.4313 38.2812C20.2563 38.252 20.0813 38.2083 19.9062 38.15C15.9688 36.8375 12.8333 34.4096 10.5 30.8665C8.16667 27.3233 7 23.5095 7 19.425V11.1562C7 10.427 7.21175 9.77078 7.63525 9.18745C8.05875 8.60412 8.60533 8.1812 9.275 7.9187L19.775 3.9812C20.1833 3.83537 20.5917 3.76245 21 3.76245C21.4083 3.76245 21.8167 3.83537 22.225 3.9812L32.725 7.9187C33.3958 8.1812 33.943 8.60412 34.3665 9.18745C34.79 9.77078 35.0012 10.427 35 11.1562V19.425C35 23.5083 33.8333 27.3221 31.5 30.8665C29.1667 34.4108 26.0312 36.8386 22.0938 38.15C21.9187 38.2083 21.7437 38.252 21.5687 38.2812C21.3937 38.3104 21.2042 38.325 21 38.325Z" fill="#FEAC3B"/>
</svg>
