<svg width="42" height="42" viewBox="0 0 42 42" fill="none" xmlns="http://www.w3.org/2000/svg">
<path d="M35.5564 6.96855L21.6193 2.21895C21.4512 2.16152 21.2256 2.13281 21 2.13281C20.7744 2.13281 20.5488 2.16152 20.3807 2.21895L6.44355 6.96855C6.10313 7.0834 5.82422 7.47715 5.82422 7.83809V27.624C5.82422 27.985 6.05801 28.4607 6.34102 28.6863L20.4791 39.7031C20.6227 39.8139 20.8072 39.8713 20.9959 39.8713C21.1846 39.8713 21.3732 39.8139 21.5127 39.7031L35.6508 28.6863C35.9338 28.4648 36.1676 27.9891 36.1676 27.624V7.83809C36.1758 7.47715 35.8969 7.0875 35.5564 6.96855ZM33.2227 26.8365L21 36.3604L8.77734 26.8365V9.29824L21 5.13105L33.2227 9.29824V26.8365ZM16.5785 18.5924C16.4555 18.4242 16.2586 18.3217 16.0453 18.3217H13.7812C13.5146 18.3217 13.3588 18.6252 13.5146 18.8426L18.699 25.9793C18.7603 26.0632 18.8406 26.1315 18.9332 26.1785C19.0259 26.2256 19.1283 26.2501 19.2322 26.2501C19.3361 26.2501 19.4386 26.2256 19.5312 26.1785C19.6239 26.1315 19.7041 26.0632 19.7654 25.9793L28.4854 13.974C28.6412 13.7566 28.4854 13.4531 28.2188 13.4531H25.9547C25.7455 13.4531 25.5445 13.5557 25.4215 13.7238L19.2322 22.2469L16.5785 18.5924Z" fill="#FEAC3B"/>
</svg>
