<svg width="42" height="42" viewBox="0 0 42 42" fill="none" xmlns="http://www.w3.org/2000/svg">
<path d="M6.125 19.25V24.5C6.125 31.0992 6.125 34.3997 8.176 36.449C10.227 38.4982 13.5258 38.5 20.125 38.5H21.875C28.4742 38.5 31.7747 38.5 33.824 36.449C35.8732 34.398 35.875 31.0992 35.875 24.5V19.25" stroke="#FEAC3B" stroke-width="3"/>
<path d="M16.6253 3.5H25.3753L26.5163 14.9047C26.5914 15.6743 26.5047 16.4511 26.2617 17.1852C26.0187 17.9193 25.6248 18.5944 25.1053 19.1671C24.5858 19.7399 23.9522 20.1975 23.2452 20.5108C22.5382 20.824 21.7735 20.9858 21.0003 20.9858C20.227 20.9858 19.4623 20.824 18.7553 20.5108C18.0484 20.1975 17.4147 19.7399 16.8952 19.1671C16.3757 18.5944 15.9818 17.9193 15.7388 17.1852C15.4958 16.4511 15.4091 15.6743 15.4843 14.9047L16.6253 3.5Z" stroke="#FEAC3B" stroke-width="3"/>
<path d="M5.82754 9.36425C6.13904 7.80675 6.29479 7.028 6.61154 6.39625C6.94158 5.73832 7.40629 5.15714 7.97549 4.69044C8.5447 4.22374 9.20568 3.88195 9.91554 3.68725C10.598 3.5 11.3925 3.5 12.9815 3.5H16.625L15.3563 16.1787C15.2893 16.9044 15.075 17.6087 14.7264 18.2485C14.3778 18.8884 13.9022 19.4504 13.3289 19.9002C12.7555 20.3499 12.0964 20.6779 11.3919 20.864C10.6874 21.0502 9.95235 21.0906 9.23168 20.9828C8.51102 20.875 7.81994 20.6212 7.20075 20.237C6.58156 19.8529 6.04729 19.3464 5.63064 18.7485C5.214 18.1507 4.92375 17.4742 4.77766 16.7603C4.63158 16.0464 4.63273 15.3102 4.78104 14.5967L5.82754 9.36425ZM36.1725 9.36425C35.861 7.80675 35.7053 7.028 35.3885 6.39625C35.0585 5.73832 34.5938 5.15714 34.0246 4.69044C33.4554 4.22374 32.7944 3.88195 32.0845 3.68725C31.402 3.5 30.6075 3.5 29.0185 3.5H25.375L26.6438 16.1787C26.7107 16.9044 26.9251 17.6087 27.2737 18.2485C27.6223 18.8884 28.0978 19.4504 28.6712 19.9002C29.2445 20.3499 29.9036 20.6779 30.6081 20.864C31.3126 21.0502 32.0477 21.0906 32.7684 20.9828C33.4891 20.875 34.1801 20.6212 34.7993 20.237C35.4185 19.8529 35.9528 19.3464 36.3694 18.7485C36.7861 18.1507 37.0763 17.4742 37.2224 16.7603C37.3685 16.0464 37.3674 15.3102 37.219 14.5967L36.1725 9.36425Z" stroke="#FEAC3B" stroke-width="3"/>
<path d="M16.625 37.625V32.375C16.625 30.7387 16.625 29.9215 16.9768 29.3125C17.2071 28.9135 17.5385 28.5821 17.9375 28.3518C18.5465 28 19.3637 28 21 28C22.6363 28 23.4535 28 24.0625 28.3518C24.4615 28.5821 24.7929 28.9135 25.0232 29.3125C25.375 29.9215 25.375 30.7387 25.375 32.375V37.625" stroke="#FEAC3B" stroke-width="3" stroke-linecap="round"/>
</svg>
