<svg width="42" height="42" viewBox="0 0 42 42" fill="none" xmlns="http://www.w3.org/2000/svg">
<path d="M5.3312 17.7352L3.1528 37.3352L5.936 37.646L8.1144 18.0432L5.3312 17.7352ZM7.3276 42H34.6724V39.2H7.3276V42ZM38.8472 37.3352L36.6688 17.7352L33.8856 18.0432L36.064 37.646L38.8472 37.3352ZM32.4912 14H9.5088V16.8H32.4968L32.4912 14ZM36.6688 17.7352C36.5544 16.708 36.0653 15.7591 35.2951 15.0699C34.5248 14.3808 33.5247 13.9999 32.4912 14L32.494 16.8C32.8387 16.8 33.1712 16.9271 33.428 17.157C33.6847 17.3869 33.8477 17.7034 33.8856 18.046L36.6688 17.7352ZM34.6724 42C35.263 41.9997 35.8469 41.8748 36.3859 41.6336C36.925 41.3923 37.4071 41.0401 37.8008 40.5999C38.1945 40.1597 38.4909 39.6414 38.6708 39.0788C38.8506 38.5163 38.9126 37.9222 38.8472 37.3352L36.064 37.646C36.0861 37.8419 36.0665 38.0374 36.0067 38.2252C35.9468 38.413 35.848 38.5861 35.7166 38.733C35.5852 38.88 35.4243 38.9975 35.2444 39.078C35.0644 39.1585 34.8695 39.2001 34.6724 39.2V42ZM3.1528 37.3352C3.08742 37.9224 3.14665 38.5168 3.32664 39.0795C3.50663 39.6422 3.80332 40.1607 4.19733 40.6009C4.59134 41.0412 5.0738 41.3933 5.6132 41.6344C6.15259 41.8755 6.73678 42.0001 7.3276 42V39.2C7.13075 39.2 6.93611 39.1585 6.75638 39.0782C6.57665 38.9979 6.41588 38.8806 6.28456 38.734C6.15324 38.5873 6.05432 38.4146 5.99426 38.2271C5.9342 38.0397 5.91435 37.8417 5.936 37.646L3.1528 37.3352ZM8.1144 18.0432C8.15295 17.7011 8.31617 17.3853 8.57288 17.1559C8.82958 16.9266 9.16458 16.7999 9.5088 16.8V14C8.47575 14.0005 7.47634 14.3818 6.70668 15.0709C5.93703 15.7599 5.44552 16.7085 5.3312 17.7352L8.1144 18.0432ZM14 11.2V9.8H11.2V11.2H14ZM28 9.8V11.2H30.8V9.8H28ZM21 2.8C22.8565 2.8 24.637 3.5375 25.9497 4.85025C27.2625 6.16301 28 7.94348 28 9.8H30.8C30.8 7.20088 29.7675 4.70821 27.9296 2.87035C26.0918 1.0325 23.5991 0 21 0V2.8ZM14 9.8C14 7.94348 14.7375 6.16301 16.0503 4.85025C17.363 3.5375 19.1435 2.8 21 2.8V0C18.4009 0 15.9082 1.0325 14.0704 2.87035C12.2325 4.70821 11.2 7.20088 11.2 9.8H14Z" fill="#FEAC3B"/>
</svg>
