<svg width="42" height="42" viewBox="0 0 42 42" fill="none" xmlns="http://www.w3.org/2000/svg">
<path d="M22.75 19.25L31.5 10.5" stroke="#FEAC3B" stroke-width="2"/>
<path d="M33.2499 12.2501L29.7499 8.75012L34.1249 6.12512L35.8749 7.87512L33.2499 12.2501ZM7.0437 15.7064C6.20351 14.8669 5.6255 13.8013 5.38004 12.6393C5.13458 11.4772 5.23226 10.2689 5.6612 9.16137L8.1497 11.6499H11.6497V8.14987L9.1612 5.66137C10.2688 5.23146 11.4775 5.13297 12.6401 5.3779C13.8027 5.62282 14.8689 6.20058 15.709 7.04079C16.549 7.881 17.1265 8.94738 17.3712 10.11C17.6159 11.2727 17.5171 12.4814 17.0869 13.5889L28.4094 24.9131C29.5169 24.483 30.7257 24.3842 31.8883 24.6289C33.0509 24.8735 34.1173 25.4511 34.9575 26.2911C35.7977 27.1311 36.3755 28.1974 36.6204 29.36C36.8653 30.5225 36.7668 31.7313 36.3369 32.8389L33.8502 30.3504H30.3502V33.8504L32.8387 36.3389C31.7314 36.7688 30.5229 36.8674 29.3606 36.6228C28.1982 36.3781 27.132 35.8008 26.2919 34.9611C25.4518 34.1213 24.874 33.0554 24.6288 31.8931C24.3837 30.7309 24.4818 29.5224 24.9112 28.4149L13.5852 17.0889C12.4781 17.5171 11.2705 17.6144 10.1092 17.3689C8.94784 17.1235 7.88284 16.5459 7.0437 15.7064Z" stroke="#FEAC3B" stroke-width="2" stroke-linejoin="round"/>
<path d="M21.3553 25.375L11.5483 35.182C11.3289 35.4019 11.0682 35.5763 10.7813 35.6953C10.4944 35.8143 10.1868 35.8756 9.87618 35.8756C9.56556 35.8756 9.25798 35.8143 8.97106 35.6953C8.68413 35.5763 8.4235 35.4019 8.20406 35.182L6.81806 33.796C6.5982 33.5766 6.42378 33.3159 6.30478 33.029C6.18577 32.7421 6.12451 32.4345 6.12451 32.1239C6.12451 31.8133 6.18577 31.5057 6.30478 31.2188C6.42378 30.9319 6.5982 30.6712 6.81806 30.4518L16.6251 20.6448" stroke="#FEAC3B" stroke-width="2" stroke-linejoin="round"/>
</svg>
