<svg width="42" height="42" viewBox="0 0 42 42" fill="none" xmlns="http://www.w3.org/2000/svg">
<path d="M27.587 7C28.5618 7.00003 29.5174 7.27148 30.3467 7.78395C31.176 8.29641 31.8462 9.02964 32.2823 9.9015L34.7025 14.7403C35.1295 14.5653 35.5548 14.3885 35.9678 14.1837C36.3831 13.9763 36.8639 13.9423 37.3044 14.0894C37.7448 14.2364 38.1088 14.5524 38.3163 14.9678C38.5237 15.3831 38.5577 15.8639 38.4106 16.3044C38.2636 16.7448 37.9477 17.1088 37.5323 17.3163C36.6678 17.7468 36.2723 17.8798 36.2723 17.8798L37.9453 21.2275C38.311 21.9573 38.5 22.7605 38.5 23.576V28C38.5 28.7386 38.3441 29.469 38.0426 30.1432C37.741 30.8175 37.3006 31.4206 36.75 31.913V34.125C36.75 34.8212 36.4734 35.4889 35.9812 35.9812C35.4889 36.4734 34.8212 36.75 34.125 36.75C33.4288 36.75 32.7611 36.4734 32.2689 35.9812C31.7766 35.4889 31.5 34.8212 31.5 34.125V33.25H10.5V34.125C10.5 34.8212 10.2234 35.4889 9.73116 35.9812C9.23888 36.4734 8.5712 36.75 7.87501 36.75C7.17881 36.75 6.51113 36.4734 6.01885 35.9812C5.52657 35.4889 5.25001 34.8212 5.25001 34.125V31.913C4.17551 30.9505 3.50001 29.554 3.50001 28V23.576C3.50033 22.7613 3.69026 21.9579 4.05476 21.2292L5.72776 17.8798C5.30374 17.7043 4.88475 17.517 4.47126 17.318C4.26498 17.2157 4.08093 17.0736 3.92966 16.9C3.77838 16.7264 3.66285 16.5247 3.58969 16.3063C3.51654 16.088 3.48719 15.8574 3.50333 15.6277C3.51947 15.398 3.58078 15.1737 3.68376 14.9678C3.89546 14.5542 4.26149 14.2406 4.70265 14.0949C5.1438 13.9491 5.6246 13.9829 6.04101 14.189C6.45401 14.3873 6.87284 14.5711 7.29751 14.7403L9.71776 9.9015C10.1538 9.02964 10.824 8.29641 11.6533 7.78395C12.4826 7.27148 13.4382 7.00003 14.413 7H27.587ZM32.9595 19.082C29.9845 20.0218 25.7513 21 21 21C16.2488 21 12.0155 20.02 9.04051 19.082L7.18551 22.792C7.06354 23.0354 7.00002 23.3038 7.00001 23.576V28C7.00001 28.4641 7.18438 28.9093 7.51257 29.2374C7.84076 29.5656 8.28588 29.75 8.75001 29.75H33.25C33.7141 29.75 34.1593 29.5656 34.4874 29.2374C34.8156 28.9093 35 28.4641 35 28V23.576C34.9997 23.3044 34.9362 23.0366 34.8145 22.7937L32.9595 19.082ZM13.125 22.75C13.8212 22.75 14.4889 23.0266 14.9812 23.5188C15.4734 24.0111 15.75 24.6788 15.75 25.375C15.75 26.0712 15.4734 26.7389 14.9812 27.2312C14.4889 27.7234 13.8212 28 13.125 28C12.4288 28 11.7611 27.7234 11.2688 27.2312C10.7766 26.7389 10.5 26.0712 10.5 25.375C10.5 24.6788 10.7766 24.0111 11.2688 23.5188C11.7611 23.0266 12.4288 22.75 13.125 22.75ZM28.875 22.75C29.5712 22.75 30.2389 23.0266 30.7312 23.5188C31.2234 24.0111 31.5 24.6788 31.5 25.375C31.5 26.0712 31.2234 26.7389 30.7312 27.2312C30.2389 27.7234 29.5712 28 28.875 28C28.1788 28 27.5111 27.7234 27.0189 27.2312C26.5266 26.7389 26.25 26.0712 26.25 25.375C26.25 24.6788 26.5266 24.0111 27.0189 23.5188C27.5111 23.0266 28.1788 22.75 28.875 22.75ZM27.587 10.5H14.413C14.0881 10.5002 13.7697 10.5908 13.4933 10.7617C13.217 10.9326 12.9937 11.1771 12.8485 11.4678L10.626 15.9075C13.335 16.7213 16.9855 17.5 21 17.5C25.0145 17.5 28.665 16.7213 31.3723 15.9075L29.1515 11.4678C29.0063 11.1771 28.783 10.9326 28.5067 10.7617C28.2304 10.5908 27.9119 10.5002 27.587 10.5Z" fill="#FEAC3B"/>
</svg>
