<svg width="37" height="37" viewBox="0 0 37 37" fill="none" xmlns="http://www.w3.org/2000/svg">
<path d="M18.6543 28.5979L18.5002 28.7521L18.3306 28.5979C11.0077 21.9533 6.16683 17.5596 6.16683 13.1042C6.16683 10.0208 8.47933 7.70833 11.5627 7.70833C13.9368 7.70833 16.2493 9.25 17.0664 11.3467H19.9339C20.751 9.25 23.0635 7.70833 25.4377 7.70833C28.521 7.70833 30.8335 10.0208 30.8335 13.1042C30.8335 17.5596 25.9927 21.9533 18.6543 28.5979ZM25.4377 4.625C22.7552 4.625 20.1806 5.87375 18.5002 7.83167C16.8197 5.87375 14.2452 4.625 11.5627 4.625C6.81433 4.625 3.0835 8.34042 3.0835 13.1042C3.0835 18.9162 8.32516 23.68 16.2647 30.8796L18.5002 32.9146L20.7356 30.8796C28.6752 23.68 33.9168 18.9162 33.9168 13.1042C33.9168 8.34042 30.186 4.625 25.4377 4.625Z" fill="#FEAC3B"/>
</svg>
