<svg width="46" height="46" viewBox="0 0 46 46" fill="none" xmlns="http://www.w3.org/2000/svg">
<path d="M27.3124 15.8125C28.4496 15.8125 29.5613 15.4753 30.5069 14.8435C31.4525 14.2116 32.1895 13.3136 32.6247 12.2629C33.0599 11.2123 33.1737 10.0561 32.9519 8.94073C32.73 7.82534 32.1824 6.80079 31.3782 5.99664C30.5741 5.19249 29.5495 4.64485 28.4341 4.42299C27.3187 4.20112 26.1626 4.31499 25.1119 4.7502C24.0612 5.1854 23.1632 5.92239 22.5314 6.86797C21.8996 7.81356 21.5623 8.92526 21.5623 10.0625C21.5623 11.5875 22.1682 13.05 23.2465 14.1284C24.3248 15.2067 25.7874 15.8125 27.3124 15.8125ZM27.3124 7.1875C27.881 7.1875 28.4368 7.35612 28.9096 7.67203C29.3824 7.98794 29.7509 8.43695 29.9685 8.96229C30.1861 9.48762 30.243 10.0657 30.1321 10.6234C30.0212 11.1811 29.7474 11.6934 29.3453 12.0954C28.9432 12.4975 28.4309 12.7713 27.8732 12.8823C27.3155 12.9932 26.7375 12.9363 26.2121 12.7187C25.6868 12.5011 25.2378 12.1326 24.9219 11.6598C24.606 11.187 24.4373 10.6311 24.4373 10.0625C24.4373 9.30001 24.7403 8.56874 25.2794 8.02957C25.8186 7.4904 26.5499 7.1875 27.3124 7.1875ZM39.4071 25.2784C39.2975 25.3288 38.0613 25.8678 35.8727 25.8678C33.384 25.8678 29.6645 25.1706 24.9674 22.2741C24.2525 24.3036 23.3244 26.2515 22.1984 28.0852C24.2207 28.7077 26.1229 29.6683 27.8245 30.926C31.2511 33.5387 33.0624 37.2582 33.0624 41.6875C33.0624 42.0688 32.9109 42.4344 32.6413 42.704C32.3717 42.9736 32.0061 43.125 31.6249 43.125C31.2436 43.125 30.878 42.9736 30.6084 42.704C30.3388 42.4344 30.1874 42.0688 30.1874 41.6875C30.1874 34.1945 23.954 31.4974 20.4591 30.5738C20.3602 30.6996 20.2578 30.8272 20.1554 30.9512C16.6263 35.2277 12.2042 37.4523 7.28438 37.4523C6.72401 37.455 6.16386 37.4292 5.6061 37.375C5.22485 37.3369 4.87436 37.1489 4.63174 36.8523C4.38911 36.5558 4.27423 36.175 4.31235 35.7938C4.35047 35.4125 4.53849 35.062 4.83503 34.8194C5.13157 34.5768 5.51235 34.4619 5.8936 34.5C10.5511 34.9636 14.6031 33.1541 17.9327 29.1094C20.177 26.3889 21.7061 23.0701 22.4698 20.6641C15.4763 16.5941 11.0093 20.0585 10.9608 20.0963C10.8144 20.2213 10.6443 20.3156 10.4607 20.3737C10.2771 20.4317 10.0837 20.4523 9.89202 20.4342C9.70032 20.4161 9.51422 20.3596 9.34476 20.2682C9.1753 20.1768 9.02593 20.0522 8.90552 19.9019C8.78512 19.7517 8.69613 19.5788 8.64384 19.3934C8.59155 19.2081 8.57702 19.0142 8.60113 18.8231C8.62523 18.6321 8.68746 18.4479 8.78414 18.2813C8.88081 18.1148 9.00996 17.9694 9.16391 17.8538C9.43344 17.6381 15.8519 12.6428 25.2477 19.0343C33.4181 24.5884 38.1727 22.6838 38.2176 22.6622C38.3898 22.5809 38.5765 22.5346 38.7667 22.526C38.957 22.5174 39.1471 22.5467 39.3259 22.6122C39.5047 22.6778 39.6688 22.7782 39.8085 22.9076C39.9482 23.0371 40.0608 23.193 40.1397 23.3663C40.2186 23.5396 40.2623 23.7269 40.2682 23.9173C40.2742 24.1077 40.2422 24.2973 40.1742 24.4752C40.1062 24.6531 40.0036 24.8157 39.8722 24.9536C39.7408 25.0915 39.5833 25.2019 39.4089 25.2784H39.4071Z" fill="#FEAC3B"/>
</svg>
