<svg width="37" height="37" viewBox="0 0 37 37" fill="none" xmlns="http://www.w3.org/2000/svg">
<path d="M26.2085 15.4167C26.2085 17.9404 24.9983 20.1804 23.119 21.588L24.969 24.0546C26.3119 23.0504 27.402 21.7467 28.1524 20.2471C28.9029 18.7475 29.293 17.0935 29.2918 15.4167H26.2085ZM18.5002 7.70833C20.5445 7.70833 22.5052 8.52046 23.9508 9.96605C25.3964 11.4116 26.2085 13.3723 26.2085 15.4167H29.2918C29.2918 12.5545 28.1549 9.80964 26.131 7.78581C24.1072 5.76198 21.3623 4.625 18.5002 4.625V7.70833ZM10.7918 15.4167C10.7918 13.3723 11.604 11.4116 13.0496 9.96605C14.4951 8.52046 16.4558 7.70833 18.5002 7.70833V4.625C15.638 4.625 12.8931 5.76198 10.8693 7.78581C8.84547 9.80964 7.7085 12.5545 7.7085 15.4167H10.7918ZM13.8813 21.588C12.9213 20.871 12.1421 19.9396 11.6057 18.8682C11.0693 17.7968 10.7906 16.6149 10.7918 15.4167H7.7085C7.7073 17.0935 8.09744 18.7475 8.8479 20.2471C9.59835 21.7467 10.6884 23.0504 12.0313 24.0546L13.8813 21.588ZM16.9539 30.4371C16.905 28.0864 16.4193 25.7653 15.5217 23.5921L12.6727 24.7715C13.4219 26.586 13.8305 28.5285 13.8721 30.5019L16.9539 30.4371ZM20.5691 29.617C19.9267 29.9382 19.2184 30.1055 18.5002 30.1055C17.7819 30.1055 17.0736 29.9382 16.4312 29.617L15.053 32.375C16.1233 32.9101 17.3035 33.1887 18.5002 33.1887C19.6968 33.1887 20.877 32.9101 21.9473 32.375L20.5691 29.617ZM21.4787 23.5937C20.5807 25.7662 20.0945 28.0868 20.0449 30.4371L23.1282 30.5019C23.1699 28.5285 23.5784 26.586 24.3277 24.7715L21.4787 23.5937ZM21.9473 32.375C22.2961 32.1999 22.5904 31.9329 22.7985 31.6028C23.0066 31.2727 23.1206 30.892 23.1282 30.5019L20.0449 30.4371C20.0492 30.2656 20.1002 30.0985 20.1926 29.954C20.285 29.8094 20.4152 29.6928 20.5691 29.617L21.9473 32.375ZM13.8721 30.5019C13.8875 31.2789 14.3253 32.0112 15.053 32.375L16.4312 29.617C16.5851 29.6928 16.7153 29.8094 16.8077 29.954C16.9001 30.0985 16.9512 30.2656 16.9554 30.4371L13.8721 30.5019ZM12.0313 24.0546C12.2626 24.2304 12.3998 24.3321 12.4954 24.4092C12.5925 24.4894 12.574 24.4863 12.5308 24.4308L14.9667 22.5407C14.6784 22.1676 14.2313 21.85 13.8813 21.588L12.0313 24.0546ZM15.5217 23.5921C15.4014 23.3008 15.2488 22.903 14.9667 22.5407L12.5308 24.4308C12.5108 24.403 12.5062 24.3892 12.5262 24.4308L12.5802 24.551L12.6727 24.7715L15.5217 23.5921ZM23.119 21.588C22.769 21.85 22.3204 22.1692 22.0321 22.5407L24.4695 24.4308C24.4279 24.4847 24.4078 24.4894 24.505 24.4107C24.6005 24.3321 24.7362 24.2304 24.969 24.0562L23.119 21.588ZM24.3277 24.7715L24.4202 24.551L24.4741 24.4308C24.4942 24.3892 24.4895 24.403 24.4695 24.4308L22.0321 22.5407C21.75 22.9045 21.5989 23.3007 21.4787 23.5937L24.3277 24.7715Z" fill="#FEAC3B"/>
<path d="M23.113 24.6665C21.7481 25.5799 20.1427 26.0675 18.5004 26.0675C16.858 26.0675 15.2526 25.5799 13.8877 24.6665" stroke="#FEAC3B" stroke-width="2"/>
</svg>
