<svg width="21" height="18" viewBox="0 0 21 18" fill="none" xmlns="http://www.w3.org/2000/svg">
<path d="M0 0C1.32 0 2.64 0 4 0C4 1.32 4 2.64 4 4C2.68 4 1.36 4 0 4C0 2.68 0 1.36 0 0Z" fill="#333D40"/>
<path d="M7 0C11.62 0 16.24 0 21 0C21 1.32 21 2.64 21 4C16.38 4 11.76 4 7 4C7 2.68 7 1.36 7 0Z" fill="#333D40"/>
<path d="M0 7C1.32 7 2.64 7 4 7C4 8.32 4 9.64 4 11C2.68 11 1.36 11 0 11C0 9.68 0 8.36 0 7Z" fill="#333D40"/>
<path d="M7 7C11.62 7 16.24 7 21 7C21 8.32 21 9.64 21 11C16.38 11 11.76 11 7 11C7 9.68 7 8.36 7 7Z" fill="#333D40"/>
<path d="M0 14C1.32 14 2.64 14 4 14C4 15.32 4 16.64 4 18C2.68 18 1.36 18 0 18C0 16.68 0 15.36 0 14Z" fill="#333D40"/>
<path d="M7 14C11.62 14 16.24 14 21 14C21 15.32 21 16.64 21 18C16.38 18 11.76 18 7 18C7 16.68 7 15.36 7 14Z" fill="#333D40"/>
</svg>
