<svg width="42" height="42" viewBox="0 0 42 42" fill="none" xmlns="http://www.w3.org/2000/svg">
<path d="M21 7.875C20.1878 7.875 19.4088 8.19766 18.8345 8.77199C18.2602 9.34632 17.9375 10.1253 17.9375 10.9375C17.9375 11.7497 18.2602 12.5287 18.8345 13.103C19.4088 13.6773 20.1878 14 21 14C21.8122 14 22.5912 13.6773 23.1655 13.103C23.7398 12.5287 24.0625 11.7497 24.0625 10.9375C24.0625 10.1253 23.7398 9.34632 23.1655 8.77199C22.5912 8.19766 21.8122 7.875 21 7.875ZM15.3125 10.9375C15.3125 9.42908 15.9117 7.98244 16.9783 6.91583C18.0449 5.84922 19.4916 5.25 21 5.25C22.5084 5.25 23.9551 5.84922 25.0217 6.91583C26.0883 7.98244 26.6875 9.42908 26.6875 10.9375C26.6875 12.4459 26.0883 13.8926 25.0217 14.9592C23.9551 16.0258 22.5084 16.625 21 16.625C19.4916 16.625 18.0449 16.0258 16.9783 14.9592C15.9117 13.8926 15.3125 12.4459 15.3125 10.9375ZM8.75 11.375C8.05381 11.375 7.38613 11.6516 6.89385 12.1438C6.40156 12.6361 6.125 13.3038 6.125 14C6.125 14.6962 6.40156 15.3639 6.89385 15.8562C7.38613 16.3484 8.05381 16.625 8.75 16.625C9.44619 16.625 10.1139 16.3484 10.6062 15.8562C11.0984 15.3639 11.375 14.6962 11.375 14C11.375 13.3038 11.0984 12.6361 10.6062 12.1438C10.1139 11.6516 9.44619 11.375 8.75 11.375ZM3.5 14C3.5 12.6076 4.05312 11.2723 5.03769 10.2877C6.02226 9.30312 7.35761 8.75 8.75 8.75C10.1424 8.75 11.4777 9.30312 12.4623 10.2877C13.4469 11.2723 14 12.6076 14 14C14 15.3924 13.4469 16.7277 12.4623 17.7123C11.4777 18.6969 10.1424 19.25 8.75 19.25C7.35761 19.25 6.02226 18.6969 5.03769 17.7123C4.05312 16.7277 3.5 15.3924 3.5 14ZM30.625 14C30.625 13.3038 30.9016 12.6361 31.3938 12.1438C31.8861 11.6516 32.5538 11.375 33.25 11.375C33.9462 11.375 34.6139 11.6516 35.1062 12.1438C35.5984 12.6361 35.875 13.3038 35.875 14C35.875 14.6962 35.5984 15.3639 35.1062 15.8562C34.6139 16.3484 33.9462 16.625 33.25 16.625C32.5538 16.625 31.8861 16.3484 31.3938 15.8562C30.9016 15.3639 30.625 14.6962 30.625 14ZM33.25 8.75C31.8576 8.75 30.5223 9.30312 29.5377 10.2877C28.5531 11.2723 28 12.6076 28 14C28 15.3924 28.5531 16.7277 29.5377 17.7123C30.5223 18.6969 31.8576 19.25 33.25 19.25C34.6424 19.25 35.9777 18.6969 36.9623 17.7123C37.9469 16.7277 38.5 15.3924 38.5 14C38.5 12.6076 37.9469 11.2723 36.9623 10.2877C35.9777 9.30312 34.6424 8.75 33.25 8.75ZM13.125 22.3125C13.125 20.622 14.497 19.25 16.1875 19.25H25.8125C27.503 19.25 28.875 20.622 28.875 22.3125V28.875C28.875 30.9636 28.0453 32.9666 26.5685 34.4435C25.0916 35.9203 23.0886 36.75 21 36.75C18.9114 36.75 16.9084 35.9203 15.4315 34.4435C13.9547 32.9666 13.125 30.9636 13.125 28.875V22.3125ZM16.1875 21.875C16.0715 21.875 15.9602 21.9211 15.8781 22.0031C15.7961 22.0852 15.75 22.1965 15.75 22.3125V28.875C15.75 30.2674 16.3031 31.6027 17.2877 32.5873C18.2723 33.5719 19.6076 34.125 21 34.125C22.3924 34.125 23.7277 33.5719 24.7123 32.5873C25.6969 31.6027 26.25 30.2674 26.25 28.875V22.3125C26.25 22.1965 26.2039 22.0852 26.1219 22.0031C26.0398 21.9211 25.9285 21.875 25.8125 21.875H16.1875ZM11.5675 20.9615C11.4403 21.392 11.3762 21.8423 11.375 22.3125V23.73L6.4505 25.0495C6.33842 25.0795 6.24283 25.1527 6.18474 25.2531C6.12665 25.3535 6.11083 25.4729 6.14075 25.585L7.38675 30.2348C7.70634 31.4275 8.43612 32.4694 9.44783 33.1774C10.4595 33.8854 11.6884 34.2141 12.9185 34.1058C13.4698 34.9563 14.1523 35.714 14.9363 36.3493C13.9179 36.6869 12.8412 36.8129 11.7724 36.7195C10.7036 36.6262 9.6651 36.3153 8.72071 35.8062C7.77632 35.2971 6.94592 34.6003 6.28049 33.7587C5.61505 32.9171 5.1286 31.9484 4.851 30.912L3.605 26.264C3.39491 25.4796 3.50494 24.6439 3.91089 23.9407C4.31683 23.2374 4.98546 22.7241 5.76975 22.5138L11.5675 20.9615ZM27.0638 36.3493C27.2096 36.3983 27.3572 36.4426 27.5065 36.4823C29.5238 37.0226 31.6732 36.7395 33.4818 35.6953C35.2904 34.651 36.6102 32.931 37.1508 30.9138L38.3968 26.2657C38.501 25.8772 38.5278 25.472 38.4754 25.0732C38.4231 24.6743 38.2926 24.2897 38.0916 23.9413C37.8906 23.5929 37.6229 23.2875 37.3038 23.0425C36.9847 22.7976 36.6205 22.6179 36.232 22.5138L30.4325 20.9598C30.5597 21.3914 30.6238 21.8423 30.625 22.3125V23.73L35.553 25.0495C35.6648 25.0798 35.7599 25.1532 35.8177 25.2536C35.8754 25.354 35.891 25.4732 35.861 25.585L34.615 30.2348C34.2954 31.4278 33.5653 32.47 32.5532 33.178C31.5412 33.886 30.3118 34.2145 29.0815 34.1058C28.5311 34.955 27.8501 35.7121 27.0638 36.3493Z" fill="#FEAC3B"/>
</svg>
