<svg width="42" height="42" viewBox="0 0 42 42" fill="none" xmlns="http://www.w3.org/2000/svg">
<path d="M21 7V3.5M21 35V38.5M11.2245 11.2245L8.75 8.75M31.024 31.024L33.4985 33.4985M7 21H3.5M35 21H38.5M31.0258 11.2245L33.5002 8.75M11.2262 31.024L8.75 33.4985M21 29.75C18.6794 29.75 16.4538 28.8281 14.8128 27.1872C13.1719 25.5462 12.25 23.3206 12.25 21C12.25 18.6794 13.1719 16.4538 14.8128 14.8128C16.4538 13.1719 18.6794 12.25 21 12.25C23.3206 12.25 25.5462 13.1719 27.1872 14.8128C28.8281 16.4538 29.75 18.6794 29.75 21C29.75 23.3206 28.8281 25.5462 27.1872 27.1872C25.5462 28.8281 23.3206 29.75 21 29.75Z" stroke="#FEAC3B" stroke-width="3" stroke-linecap="round" stroke-linejoin="round"/>
</svg>
